<svg width="336" height="89" viewBox="0 0 336 89" fill="none" xmlns="http://www.w3.org/2000/svg">
<path d="M112.825 80.45C108.575 80.45 104.925 79.75 101.875 78.35C98.825 76.95 96.325 75.025 94.375 72.575C92.475 70.125 91.075 67.325 90.175 64.175C89.275 60.975 88.825 57.625 88.825 54.125V26.75H103.45V54.125C103.45 56.475 103.75 58.675 104.35 60.725C105 62.725 106 64.35 107.35 65.6C108.75 66.85 110.575 67.475 112.825 67.475C115.125 67.475 116.95 66.85 118.3 65.6C119.7 64.3 120.7 62.65 121.3 60.65C121.95 58.6 122.275 56.425 122.275 54.125V26.75H136.9V54.125C136.9 59.075 136.025 63.55 134.275 67.55C132.575 71.5 129.95 74.65 126.4 77C122.85 79.3 118.325 80.45 112.825 80.45ZM159.937 53.825V80H145.312V26.75H156.712L178.087 53.825V26.75H192.712V80H181.087L159.937 53.825ZM216.48 53.825V80H201.855V26.75H213.255L234.63 53.825V26.75H249.255V80H237.63L216.48 53.825ZM258.398 80V26.75H273.023V80H258.398ZM292.627 26.75L302.302 43.55L311.977 26.75H327.727L311.002 53.75L327.127 80H311.377L302.302 63.95L293.227 80H277.402L293.527 53.75L276.802 26.75H292.627Z" fill="#C4C4C4" fill-opacity="0.85"/>
<path d="M82.0482 24.4191L71.5366 74.3241C70.9899 76.9193 69.4347 79.1911 67.2131 80.6396C64.9915 82.0882 62.2854 82.5949 59.6902 82.0483L27.3987 75.2466L36.5735 54.492L54.7545 58.3215L60.2542 45.7961L42.171 41.9872L46.3066 32.6389L68.6171 37.3382L74.5227 23.856L36.0959 15.762L11.2432 71.8437L9.78522 71.5366C7.19 70.99 4.91823 69.4348 3.46966 67.2132C2.0211 64.9915 1.5144 62.2855 2.06104 59.6902L12.5727 9.78528C13.1193 7.19007 14.6745 4.91829 16.8961 3.46973C19.1178 2.02116 21.8239 1.51447 24.4191 2.06111L74.324 12.5727C76.9192 13.1194 79.191 14.6746 80.6396 16.8962C82.0881 19.1178 82.5948 21.8239 82.0482 24.4191Z" fill="#C4C4C4" fill-opacity="0.85"/>
</svg>
