<svg width="64" height="64" viewBox="0 0 64 64" fill="none" xmlns="http://www.w3.org/2000/svg">
<g clip-path="url(#clip0)">
<g filter="url(#filter0_d)">
<path d="M32 64C49.6731 64 64 49.6731 64 32C64 14.3269 49.6731 0 32 0C14.3269 0 0 14.3269 0 32C0 49.6731 14.3269 64 32 64Z" fill="#313131"/>
</g>
<path d="M20.7123 17.25C18.8811 17.25 18.2061 17.925 18.2061 19.7563V41.8438C18.2061 42.05 18.2123 42.2438 18.2311 42.4188C18.2748 42.8188 18.2811 43.2125 18.6561 43.65C18.6936 43.7 19.0686 43.975 19.0686 43.975C19.2686 44.075 19.4123 44.1438 19.6436 44.2438L30.7561 48.9C31.3311 49.1625 31.5748 49.2687 31.9936 49.2562H31.9998C32.4248 49.2687 32.6623 49.1625 33.2373 48.9L44.3498 44.2438C44.5811 44.15 44.7186 44.0812 44.9248 43.975C44.9248 43.975 45.3061 43.6938 45.3373 43.65C45.7123 43.2125 45.7123 42.825 45.7623 42.4188C45.7811 42.2438 45.7873 42.05 45.7873 41.8438V19.75C45.7873 17.9188 45.1123 17.25 43.2811 17.25H20.7123ZM38.5248 21.3937H39.4311C40.9436 21.3937 41.6811 22.1312 41.6811 23.6562V26.1625H39.8498V23.7563C39.8498 23.2688 39.6248 23.0375 39.1498 23.0375H38.8373C38.3498 23.0375 38.1186 23.2625 38.1186 23.7563V31.5063C38.1186 31.9938 38.3436 32.2188 38.8373 32.2188H39.1811C39.6498 32.2188 39.8748 31.9938 39.8748 31.5063V28.7313H41.7123V31.5875C41.7123 33.1125 40.9623 33.8625 39.4436 33.8625H38.5186C36.9998 33.8625 36.2498 33.1062 36.2498 31.5875V23.675C36.2561 22.15 37.0061 21.3937 38.5248 21.3937ZM22.2748 21.4937H26.4248V23.1938H24.1373V26.6688H26.3373V28.3687H24.1373V32.0687H26.4561V33.7687H22.2748V21.4937ZM27.3623 21.4937H30.2936C31.8123 21.4937 32.5623 22.25 32.5623 23.775V27.0375C32.5623 28.5625 31.8123 29.3188 30.2936 29.3188H29.2373V33.7687H27.3686L27.3623 21.4937ZM33.3998 21.4937H35.2623V33.7687H33.3998V21.4937ZM29.2248 23.15V27.6688H29.9998C30.4686 27.6688 30.6936 27.4438 30.6936 26.95V23.8687C30.6936 23.375 30.4686 23.15 29.9998 23.15H29.2248ZM24.0873 36.6875H24.3623L24.4248 36.6937H24.5248L24.5748 36.7125H24.6248L24.6748 36.725L24.7248 36.7375L24.7686 36.7438L24.8123 36.7562L24.8561 36.7625L24.9061 36.7812L24.9436 36.7875L24.9811 36.8063L25.0311 36.8187L25.0686 36.8375L25.1186 36.8563L25.1623 36.875L25.1998 36.9L25.2498 36.9188L25.2873 36.9437L25.3373 36.9688L25.3748 36.9938L25.4186 37.0187L25.4561 37.05L25.4936 37.075L25.5311 37.1063L25.5748 37.1375L25.6123 37.175L25.6498 37.2062L25.6186 37.2438L25.5811 37.2812L25.5498 37.3187L25.5123 37.3563L25.4811 37.3937L25.4498 37.4313L25.4123 37.4688L25.3811 37.5062L25.3498 37.5438L25.3123 37.5812L25.2811 37.6188L25.2436 37.6562L25.2123 37.6937L25.1811 37.7313L25.1436 37.7687L25.1123 37.8125L25.0748 37.85L25.0436 37.8875L25.0061 37.8563L24.9686 37.8187L24.9311 37.7938L24.8873 37.7625L24.8498 37.7375L24.8061 37.7125L24.7686 37.6875L24.7248 37.6625L24.6873 37.6437L24.6498 37.625L24.6123 37.6125L24.5686 37.5938L24.5186 37.5812L24.4811 37.5687L24.4311 37.5563L24.3811 37.5438L24.3311 37.5375H24.2748L24.2123 37.525H24.1123L24.0623 37.5312H24.0123L23.9623 37.5438L23.9186 37.5563L23.8748 37.5687L23.8248 37.5812L23.7873 37.6L23.7373 37.6188L23.6998 37.6437L23.6623 37.6688L23.6248 37.6937L23.5873 37.725L23.5498 37.7562L23.5123 37.7875L23.4811 37.825L23.4436 37.8625L23.4186 37.9L23.3936 37.9375L23.3623 37.975L23.3436 38.0187L23.3186 38.0563L23.2936 38.1L23.2811 38.1437L23.2623 38.1875L23.2498 38.2375L23.2436 38.2875L23.2311 38.3312L23.2186 38.3875V38.4375L23.2123 38.4875V38.6063L23.2186 38.6562L23.2248 38.7L23.2311 38.75L23.2436 38.8L23.2561 38.8375L23.2623 38.8875L23.2748 38.925L23.2936 38.9625L23.3123 39.0125L23.3373 39.0625L23.3561 39.1L23.3811 39.1375L23.4123 39.1813L23.4436 39.2188L23.4686 39.2562L23.5061 39.2938L23.5373 39.3312L23.5748 39.3625L23.6123 39.3937L23.6498 39.425L23.6936 39.45L23.7311 39.475L23.7748 39.4938L23.8248 39.5125L23.8623 39.5312L23.9123 39.5438L23.9623 39.5625L24.0123 39.5687L24.0623 39.5812L24.1123 39.5875L24.1748 39.5938H24.3373L24.3998 39.5875H24.4498L24.4998 39.5687L24.5498 39.5625L24.5998 39.5438L24.6436 39.5375L24.6873 39.5187L24.7248 39.5L24.7748 39.4813L24.8061 39.4625L24.8436 39.4375V38.975H24.1061V38.2313H25.7686V39.8937L25.7311 39.925L25.6936 39.9562L25.6561 39.9813L25.6186 40.0125L25.5811 40.0375L25.5436 40.0687L25.5061 40.0938L25.4623 40.1188L25.4123 40.1437L25.3686 40.1688L25.3311 40.1937L25.2811 40.2125L25.2436 40.2375L25.1936 40.2562L25.1436 40.275L25.0936 40.2938L25.0498 40.3125L25.0061 40.325L24.9623 40.3438L24.9123 40.3563L24.8686 40.3688L24.8186 40.3875L24.7748 40.3937L24.7248 40.4062L24.6748 40.4188L24.6248 40.425L24.5748 40.4313L24.5248 40.4375L24.4748 40.4437L24.4123 40.45L24.3623 40.4562L24.3061 40.4625H24.0436L23.9998 40.5H23.9498L23.8998 40.4938H23.8498L23.7998 40.475L23.7498 40.4688L23.6998 40.4562L23.6498 40.45L23.6123 40.4313L23.5623 40.425L23.5123 40.4062L23.4686 40.3875L23.4248 40.375L23.3748 40.3563L23.3311 40.3375L23.2811 40.3187L23.2436 40.3L23.1936 40.275L23.1561 40.25L23.1061 40.225L23.0686 40.2L23.0311 40.175L22.9936 40.1437L22.9561 40.1125L22.9123 40.0812L22.8811 40.05L22.8436 40.0187L22.8061 39.9813L22.7686 39.95L22.7311 39.9125L22.6873 39.875L22.6498 39.8375L22.6186 39.8L22.5873 39.7625L22.5623 39.725L22.5311 39.6875L22.5061 39.65L22.4811 39.6125L22.4561 39.5687L22.4311 39.5312L22.4123 39.4875L22.3936 39.4437L22.3748 39.4L22.3561 39.3563L22.3436 39.3187L22.3248 39.275L22.3123 39.2313L22.2998 39.1875L22.2873 39.1375L22.2748 39.0938L22.2623 39.0438L22.2561 39L22.2436 38.95L22.2373 38.9062L22.2311 38.8563L22.2248 38.8063L22.2186 38.7562V38.4813L22.2311 38.4313V38.375L22.2436 38.325V38.275L22.2623 38.225L22.2811 38.175L22.2873 38.125L22.2998 38.0812L22.3186 38.0312L22.3311 37.9875L22.3498 37.9375L22.3686 37.8937L22.3873 37.85L22.4061 37.8063L22.4248 37.7625L22.4498 37.7188L22.4748 37.6813L22.4998 37.6437L22.5248 37.6063L22.5498 37.5687L22.5811 37.525L22.6123 37.4875L22.6436 37.45L22.6811 37.4125L22.7123 37.375L22.7436 37.3375L22.7811 37.3L22.8123 37.2625L22.8498 37.2313L22.8873 37.1937L22.9248 37.1625L22.9623 37.1312L22.9998 37.1063L23.0373 37.075L23.0748 37.05L23.1186 37.025L23.1623 37L23.2123 36.975L23.2498 36.95L23.2998 36.9313L23.3436 36.9125L23.3936 36.8875L23.4311 36.875L23.4811 36.8563L23.5248 36.8375L23.5686 36.825L23.6123 36.8125L23.6623 36.8L23.7061 36.7875L23.7561 36.775H23.8061L23.8561 36.7625H23.9061L23.9561 36.75H24.0061L24.0873 36.6875ZM40.0748 36.7H40.3498L40.4123 36.7125H40.5123L40.5623 36.725H40.6248L40.6748 36.7438L40.7186 36.75L40.7686 36.7625L40.8186 36.7687L40.8623 36.7812L40.9123 36.7938L40.9623 36.8125L40.9998 36.8187L41.0498 36.8375L41.0998 36.8563L41.1373 36.875L41.1873 36.8937L41.2373 36.9125L41.2811 36.9375L41.3186 36.9562L41.3686 36.9813L41.4123 37.0062L41.4498 37.0312L41.4936 37.0625L41.5311 37.0875L41.5686 37.1188L41.6061 37.15L41.6436 37.1813L41.6123 37.2188L41.5873 37.2625L41.5561 37.3L41.5248 37.3375L41.4936 37.3812L41.4686 37.4188L41.4373 37.4562L41.4061 37.5L41.3811 37.5375L41.3498 37.575L41.3186 37.6125L41.2873 37.6562L41.2623 37.7L41.2311 37.7375L41.1936 37.775L41.1686 37.8125L41.1373 37.8563L41.0998 37.825L41.0561 37.8L41.0186 37.775L40.9811 37.7438L40.9373 37.725L40.8998 37.7L40.8498 37.6813L40.8123 37.6625L40.7623 37.6437L40.7248 37.625L40.6873 37.6125L40.6436 37.5938L40.5936 37.5812L40.5436 37.5625L40.4936 37.55L40.4373 37.5375L40.3873 37.5312L40.3373 37.5187L40.2873 37.5125L40.2373 37.5062L40.1936 37.5H40.0811L40.0248 37.5062L39.9748 37.5187L39.9248 37.525L39.8873 37.5438L39.8498 37.5625L39.8061 37.6L39.7748 37.6437L39.7561 37.6875V37.8125L39.7811 37.8688L39.7998 37.9L39.8373 37.9375L39.8873 37.9625L39.9248 37.9875L39.9748 38.0062L40.0248 38.025L40.0873 38.0438L40.1248 38.0563L40.1623 38.0687L40.2123 38.0812L40.2498 38.0938L40.2998 38.1063L40.3561 38.1188L40.4123 38.1312L40.4686 38.15L40.5248 38.1562L40.5748 38.175L40.6311 38.1875L40.6811 38.2L40.7311 38.2125L40.7811 38.225L40.8311 38.2438L40.8811 38.2562L40.9248 38.2687L40.9748 38.2875L41.0248 38.3063L41.0748 38.3312L41.1248 38.35L41.1748 38.375L41.2248 38.4L41.2623 38.425L41.2998 38.45L41.3436 38.4813L41.3811 38.5062L41.4248 38.5438L41.4623 38.5812L41.4998 38.6188L41.5373 38.6562L41.5623 38.6937L41.5998 38.7438L41.6248 38.7812L41.6436 38.8312L41.6686 38.8688L41.6811 38.9188L41.6998 38.9562L41.7061 39.0062L41.7186 39.0563L41.7248 39.1063L41.7311 39.1562L41.7373 39.2062V39.3312L41.7311 39.3875L41.7248 39.4375L41.7186 39.4938L41.7061 39.5438L41.6936 39.5938L41.6811 39.6437L41.6686 39.6937L41.6498 39.7375L41.6311 39.775L41.6123 39.8187L41.5873 39.8563L41.5561 39.8937L41.5311 39.9313L41.5061 39.975L41.4686 40.0125L41.4373 40.05L41.3998 40.0812L41.3623 40.1188L41.3248 40.15L41.2873 40.1813L41.2498 40.2062L41.2061 40.2375L41.1561 40.2625L41.1186 40.2812L41.0686 40.3063L41.0186 40.325L40.9686 40.3438L40.9186 40.3625L40.8686 40.375L40.8311 40.3875L40.7811 40.4L40.7311 40.4125L40.6936 40.4188L40.6436 40.4313H40.6248L40.5748 40.4375H40.5248L40.4748 40.45H40.0998L40.0498 40.4437L39.9998 40.4375L39.9436 40.4313L39.8936 40.4188L39.8436 40.4125L39.7936 40.4062L39.7436 40.3937L39.6873 40.3812L39.6373 40.3688L39.5873 40.3563L39.5373 40.3438L39.4873 40.3312L39.4373 40.3125L39.3873 40.2938L39.3436 40.2812L39.2936 40.2687L39.2436 40.25L39.2061 40.2313L39.1561 40.2125L39.1186 40.1875L39.0686 40.1688L39.0248 40.1437L38.9873 40.1188L38.9373 40.0938L38.8998 40.0687L38.8561 40.0438L38.8186 40.0125L38.7811 39.9813L38.7436 39.95L38.7061 39.9188L38.6686 39.8875L38.6311 39.85L38.6623 39.8125L38.6998 39.775L38.7311 39.7375L38.7686 39.7L38.7998 39.6625L38.8311 39.625L38.8686 39.5875L38.8998 39.55L38.9373 39.5125L38.9686 39.475L39.0061 39.4375L39.0373 39.4L39.0686 39.3625L39.1061 39.325L39.1373 39.2875L39.1748 39.25L39.2123 39.2125L39.2498 39.2438L39.2998 39.275L39.3373 39.3063L39.3873 39.3375L39.4248 39.3625L39.4686 39.3937L39.5061 39.4188L39.5498 39.4375L39.5873 39.4625L39.6311 39.4813L39.6811 39.5L39.7186 39.5187L39.7686 39.5312L39.8061 39.55L39.8561 39.5625L39.9061 39.5812L39.9561 39.6L40.0061 39.6063L40.0561 39.6188L40.1061 39.625H40.1623L40.2123 39.6437H40.4873L40.5373 39.6312L40.5873 39.6188L40.6248 39.6125L40.6623 39.6L40.6998 39.5812L40.7436 39.55L40.7686 39.5125L40.7936 39.475L40.8061 39.425V39.3063L40.7873 39.2562L40.7561 39.2188L40.7248 39.1875L40.6811 39.1562L40.6436 39.1375L40.5936 39.1188L40.5436 39.1L40.4811 39.075L40.4436 39.0687L40.4061 39.0563L40.3561 39.0438L40.3186 39.0312L40.2686 39.0125L40.2186 39.0062L40.1623 38.9875L40.1123 38.9813L40.0561 38.9625L40.0061 38.9562L39.9561 38.9375L39.9061 38.9313L39.8561 38.9125L39.8061 38.9L39.7561 38.8875L39.7123 38.8688L39.6686 38.8563L39.6248 38.8375L39.5748 38.8187L39.5186 38.8L39.4686 38.7812L39.4186 38.7625L39.3686 38.7375L39.3186 38.7125L39.2811 38.6875L39.2311 38.6625L39.1936 38.6312L39.1498 38.6063L39.1186 38.575L39.0811 38.5375L39.0436 38.5L39.0123 38.4625L38.9811 38.425L38.9561 38.3875L38.9311 38.35L38.9061 38.3063L38.8873 38.2687L38.8686 38.2313L38.8561 38.1875L38.8436 38.15L38.8311 38.1L38.8248 38.0563V38.0062L38.8123 37.9562V37.7375L38.8186 37.6875L38.8248 37.6375L38.8311 37.6L38.8436 37.55L38.8561 37.5125L38.8686 37.4625L38.8873 37.425L38.9061 37.375L38.9248 37.3375L38.9498 37.2875L38.9748 37.25L39.0123 37.2125L39.0373 37.175L39.0748 37.1375L39.1123 37.1L39.1436 37.0625L39.1873 37.025L39.2186 37L39.2623 36.9688L39.2998 36.9375L39.3373 36.9125L39.3873 36.8875L39.4248 36.8688L39.4748 36.8438L39.5123 36.825L39.5623 36.8063L39.6123 36.7875L39.6623 36.775L39.6998 36.7625L39.7498 36.7562L39.7873 36.7438L39.8373 36.7375L39.8873 36.725L39.9373 36.7188L39.9873 36.7125L40.0373 36.7062L40.0748 36.7ZM27.7561 36.7375H28.6998L28.7186 36.7812L28.7373 36.825L28.7561 36.8688L28.7686 36.9188L28.7873 36.9625L28.8061 37.0062L28.8248 37.05L28.8436 37.0938L28.8561 37.1375L28.8811 37.1875L28.8998 37.2313L28.9186 37.275L28.9311 37.3187L28.9498 37.3625L28.9748 37.4062L28.9936 37.4562L29.0123 37.5L29.0248 37.5438L29.0436 37.5875L29.0686 37.6312L29.0811 37.675L29.0998 37.725L29.1123 37.775L29.1311 37.8125L29.1561 37.8625L29.1748 37.9L29.1936 37.95L29.2123 38L29.2248 38.0375L29.2498 38.0875L29.2686 38.125L29.2873 38.175L29.2998 38.2125L29.3186 38.2625L29.3436 38.3125L29.3623 38.3563L29.3748 38.4L29.3873 38.4437L29.4061 38.4875L29.4311 38.5312L29.4498 38.5812L29.4686 38.625L29.4811 38.6688L29.4998 38.7125L29.5186 38.7562L29.5373 38.8L29.5561 38.85L29.5748 38.8937L29.5936 38.9375L29.6186 38.9813L29.6373 39.025L29.6561 39.0687L29.6686 39.1188L29.6873 39.1625L29.7123 39.2062L29.7311 39.25L29.7436 39.2938L29.7623 39.3375L29.7811 39.3875L29.8061 39.4375L29.8186 39.475L29.8373 39.525L29.8498 39.5625L29.8686 39.6125L29.8936 39.6625L29.9123 39.7L29.9248 39.75L29.9436 39.7875L29.9561 39.8375L29.9811 39.875L29.9998 39.925L30.0123 39.975L30.0311 40.0125L30.0498 40.0625L30.0748 40.1L30.0936 40.15L30.1061 40.2L30.1248 40.2375L30.1436 40.2875L30.1686 40.325H29.1248L29.0998 40.2812L29.0873 40.2375L29.0686 40.1937L29.0498 40.1437L29.0373 40.1L29.0186 40.0563L28.9998 40.0125L28.9811 39.9688L28.9623 39.925L28.9436 39.8812L28.9311 39.8375L28.9123 39.7875L28.8936 39.7438L28.8748 39.7L28.8561 39.6562H27.4061L27.3873 39.7062L27.3748 39.7438L27.3561 39.7938L27.3311 39.8438L27.3186 39.8812L27.2998 39.9313L27.2811 39.9688L27.2686 40.0187L27.2498 40.0563L27.2311 40.1063L27.2123 40.1437L27.1936 40.1937L27.1748 40.2438L27.1561 40.2812L27.1436 40.3312H26.1123L26.1311 40.2812L26.1498 40.2375L26.1686 40.1937L26.1873 40.1437L26.1998 40.1L26.2248 40.0563L26.2436 40.0125L26.2623 39.9688L26.2748 39.925L26.2936 39.875L26.3186 39.8312L26.3373 39.7875L26.3561 39.7438L26.3686 39.7L26.3873 39.6562L26.4123 39.6063L26.4311 39.5625L26.4498 39.5187L26.4686 39.475L26.4873 39.4313L26.5061 39.3875L26.5248 39.3375L26.5436 39.2875L26.5623 39.25L26.5811 39.2L26.6061 39.1625L26.6248 39.1125L26.6373 39.0625L26.6498 39.025L26.6686 38.975L26.6936 38.9375L26.7123 38.8875L26.7311 38.85L26.7436 38.8L26.7623 38.75L26.7873 38.7125L26.7998 38.6625L26.8186 38.625L26.8373 38.575L26.8561 38.525L26.8811 38.4875L26.8998 38.4375L26.9123 38.4L26.9311 38.35L26.9498 38.3125L26.9748 38.2625L26.9936 38.2125L27.0123 38.1688L27.0248 38.125L27.0436 38.0812L27.0686 38.0375L27.0873 37.9938L27.0998 37.9437L27.1186 37.9L27.1373 37.8563L27.1623 37.8125L27.1811 37.7687L27.1936 37.725L27.2123 37.675L27.2311 37.625L27.2498 37.5875L27.2686 37.5375L27.2811 37.5L27.2998 37.45L27.3186 37.4L27.3436 37.3625L27.3623 37.3125L27.3811 37.275L27.3936 37.225L27.4123 37.1875L27.4373 37.1375L27.4561 37.0875L27.4748 37.05L27.4936 37L27.5123 36.9625L27.5373 36.9125L27.5498 36.8625L27.5623 36.825L27.5811 36.775L27.7561 36.7375ZM30.6811 36.7625H31.7123L31.7436 36.8L31.7686 36.8438L31.7998 36.8812L31.8248 36.925L31.8498 36.9625L31.8748 37.0062L31.8998 37.0438L31.9311 37.0875L31.9561 37.125L31.9811 37.1625L32.0061 37.2062L32.0311 37.2438L32.0686 37.2875L32.0873 37.325L32.1123 37.3688L32.1436 37.4062L32.1748 37.4437L32.1936 37.4875L32.2248 37.525L32.2498 37.5687L32.2686 37.6063L32.3061 37.65L32.3311 37.6875L32.3561 37.7313L32.3811 37.7687L32.4061 37.8063L32.4373 37.85L32.4623 37.8875L32.4873 37.9313L32.5123 37.9688L32.5373 38.0125L32.5686 38.05L32.5936 38.0938L32.6186 38.1312L32.6498 38.0938L32.6686 38.0438L32.6998 38.0062L32.7311 37.9562L32.7561 37.9188L32.7748 37.8688L32.8123 37.8312L32.8373 37.7812L32.8561 37.7438L32.8873 37.7062L32.9186 37.6562L32.9436 37.6188L32.9686 37.5687L32.9936 37.5312L33.0248 37.4813L33.0498 37.4437L33.0748 37.3937L33.0998 37.3563L33.1248 37.3187L33.1561 37.2687L33.1811 37.2313L33.2061 37.1813L33.2373 37.1437L33.2623 37.0938L33.2873 37.0563L33.3186 37.0187L33.3436 36.9688L33.3748 36.9313L33.3998 36.8812L33.4248 36.8438L33.4498 36.7938L33.4811 36.7562L33.5061 36.7062L33.5311 36.6688H34.5623V40.3875H33.5811V38.2L33.5561 38.2375L33.5248 38.2875L33.4998 38.325L33.4686 38.3625L33.4436 38.4125L33.4123 38.45L33.3873 38.4875L33.3561 38.5375L33.3311 38.575L33.3061 38.6125L33.2686 38.65L33.2436 38.7L33.2123 38.7375L33.1873 38.775L33.1623 38.825L33.1311 38.8625L33.1061 38.9L33.0748 38.95L33.0498 38.9875L33.0186 39.025L32.9936 39.075L32.9686 39.1125L32.9373 39.15L32.9123 39.2L32.8811 39.2375L32.8498 39.275L32.8248 39.3125L32.7998 39.3625L32.7686 39.4L32.7373 39.4375L32.7186 39.4875L32.6811 39.525L32.6561 39.5625L32.6248 39.6125L32.5998 39.65H32.5811L32.5498 39.6063L32.5248 39.5687L32.4936 39.525L32.4686 39.4875L32.4373 39.4437L32.4123 39.4062L32.3811 39.3625L32.3561 39.325L32.3248 39.2812L32.2998 39.2438L32.2623 39.2L32.2436 39.1625L32.2123 39.1188L32.1811 39.0812L32.1561 39.0375L32.1248 39L32.0998 38.95L32.0686 38.9125L32.0436 38.8688L32.0123 38.8312L31.9873 38.7875L31.9561 38.75L31.9311 38.7062L31.8998 38.6688L31.8748 38.625L31.8436 38.5875L31.8186 38.5438L31.7873 38.5062L31.7623 38.4625L31.7311 38.425L31.7061 38.3812L31.6686 38.3438L31.6498 38.3L31.6186 38.2625V40.4562H30.6873V36.775L30.6811 36.7625ZM35.3061 36.7625H38.2373V37.6H36.2748V38.1937H38.0373V38.9875H36.2748V39.625H38.2623V40.4688H35.3123V36.7875L35.3061 36.7625ZM28.2123 37.9L28.1936 37.95L28.1748 37.9875L28.1561 38.0375L28.1373 38.0875L28.1248 38.1312L28.1061 38.175L28.0873 38.225L28.0686 38.275L28.0561 38.3125L28.0373 38.3625L28.0186 38.4L27.9998 38.45L27.9811 38.5L27.9623 38.5375L27.9498 38.5875L27.9311 38.625L27.9123 38.675L27.8748 38.75L27.8623 38.7875L27.8436 38.8375L27.8248 38.8875L27.8123 38.925L27.7936 38.975H28.6498L28.6311 38.925L28.6123 38.8812L28.5936 38.8312L28.5748 38.7875L28.5623 38.7438L28.5436 38.7L28.5248 38.65L28.5061 38.6063L28.4873 38.5625L28.4686 38.5187L28.4561 38.475L28.4373 38.425L28.4186 38.3812L28.3998 38.3375L28.3811 38.2938L28.3686 38.25L28.3498 38.2L28.3311 38.15L28.3123 38.1125L28.2936 38.0625L28.2748 38.0125L28.2623 37.9688L28.2123 37.9ZM26.6811 44.8625H37.3686L31.9123 46.6625L26.6811 44.8625Z" fill="white"/>
</g>
<defs>
<filter id="filter0_d" x="-5" y="-5" width="74" height="74" filterUnits="userSpaceOnUse" color-interpolation-filters="sRGB">
<feFlood flood-opacity="0" result="BackgroundImageFix"/>
<feColorMatrix in="SourceAlpha" type="matrix" values="0 0 0 0 0 0 0 0 0 0 0 0 0 0 0 0 0 0 127 0" result="hardAlpha"/>
<feOffset/>
<feGaussianBlur stdDeviation="2.5"/>
<feComposite in2="hardAlpha" operator="out"/>
<feColorMatrix type="matrix" values="0 0 0 0 0.709804 0 0 0 0 0.0901961 0 0 0 0 0.619608 0 0 0 0.4 0"/>
<feBlend mode="normal" in2="BackgroundImageFix" result="effect1_dropShadow"/>
<feBlend mode="normal" in="SourceGraphic" in2="effect1_dropShadow" result="shape"/>
</filter>
<clipPath id="clip0">
<rect width="64" height="64" fill="white"/>
</clipPath>
</defs>
</svg>
