<svg width="195" height="46" viewBox="0 0 195 46" fill="none" xmlns="http://www.w3.org/2000/svg">
<path d="M49.968 45.288C47.184 45.288 44.928 44.776 43.2 43.752C41.504 42.728 40.256 41.336 39.456 39.576C38.688 37.784 38.304 35.784 38.304 33.576C38.304 31.912 38.496 30.2 38.88 28.44L42.624 10.92H51.984L48.24 28.44C48.112 29.048 48.016 29.64 47.952 30.216C47.888 30.76 47.856 31.304 47.856 31.848C47.856 33.32 48.16 34.552 48.768 35.544C49.376 36.504 50.368 36.984 51.744 36.984C53.024 36.984 54.144 36.584 55.104 35.784C56.064 34.952 56.848 33.896 57.456 32.616C58.096 31.304 58.576 29.912 58.896 28.44L62.64 10.92H72L68.256 28.44C67.584 31.608 66.448 34.472 64.848 37.032C63.248 39.56 61.2 41.576 58.704 43.08C56.24 44.552 53.328 45.288 49.968 45.288ZM77.3228 10.92H84.6188L93.2588 28.248L96.9068 10.92H106.267L99.0188 45H91.6268L82.9868 28.248L79.4348 45H70.0747L77.3228 10.92ZM112.104 10.92H119.4L128.04 28.248L131.688 10.92H141.048L133.8 45H126.408L117.768 28.248L114.216 45H104.856L112.104 10.92ZM146.885 10.92H156.245L148.997 45H139.637L146.885 10.92ZM165.72 28.2L158.712 10.92H168.84L172.056 21.672L179.832 10.92H189.912L175.56 28.2L182.28 45H172.2L169.272 34.728L161.976 45H151.848L165.72 28.2Z" fill="url(#paint0_linear)"/>
<path d="M0.488 8V2.32H3.096C3.37333 2.32 3.62933 2.376 3.864 2.488C4.09867 2.6 4.30133 2.752 4.472 2.944C4.64267 3.13067 4.77333 3.34133 4.864 3.576C4.96 3.81067 5.008 4.048 5.008 4.288C5.008 4.61333 4.936 4.92 4.792 5.208C4.648 5.496 4.448 5.73067 4.192 5.912L5.392 8H3.68L2.68 6.256H2.048V8H0.488ZM2.048 4.896H3.032C3.128 4.896 3.216 4.84267 3.296 4.736C3.38133 4.62933 3.424 4.48 3.424 4.288C3.424 4.09067 3.376 3.94133 3.28 3.84C3.184 3.73333 3.088 3.68 2.992 3.68H2.048V4.896ZM7.19844 2.32H8.94244L10.7504 8H9.16644L8.82244 6.888H7.31044L6.97444 8H5.38244L7.19844 2.32ZM8.57444 5.848L8.07044 3.848L7.54244 5.848H8.57444ZM13.444 8.04C13.076 8.04 12.724 7.976 12.388 7.848C12.0573 7.71467 11.764 7.52267 11.508 7.272C11.252 7.016 11.0493 6.70933 10.9 6.352C10.756 5.98933 10.684 5.576 10.684 5.112C10.684 4.712 10.7587 4.34133 10.908 4C11.0573 3.65867 11.2627 3.36 11.524 3.104C11.7907 2.84267 12.1 2.64 12.452 2.496C12.804 2.352 13.1853 2.28 13.596 2.28C14.108 2.28 14.572 2.392 14.988 2.616C15.404 2.83467 15.7133 3.136 15.916 3.52L14.756 4.408C14.644 4.184 14.476 4.00533 14.252 3.872C14.028 3.73333 13.7907 3.664 13.54 3.664C13.2947 3.664 13.076 3.728 12.884 3.856C12.692 3.984 12.54 4.16267 12.428 4.392C12.3213 4.616 12.268 4.87467 12.268 5.168C12.268 5.61067 12.388 5.97067 12.628 6.248C12.8733 6.52 13.1907 6.656 13.58 6.656C14.0227 6.656 14.4227 6.46933 14.78 6.096H13.796V4.976H16.132V8H14.844V7.528C14.4387 7.86933 13.972 8.04 13.444 8.04ZM20.9501 6.64V8H16.9021V2.32H20.8781V3.68H18.4621V4.48H20.5261V5.744H18.4621V6.64H20.9501ZM27.7684 8V5.008L26.8164 7.112H25.9844L25.0324 5.008V8H23.4724V2.32H25.1764L26.4004 4.992L27.6324 2.32H29.3284V8H27.7684ZM30.3005 8V2.32H32.7485C33.0258 2.32 33.2818 2.376 33.5165 2.488C33.7512 2.6 33.9538 2.752 34.1245 2.944C34.2952 3.13067 34.4258 3.34133 34.5165 3.576C34.6125 3.81067 34.6605 4.048 34.6605 4.288C34.6605 4.624 34.5805 4.94133 34.4205 5.24C34.2658 5.53867 34.0472 5.784 33.7645 5.976C33.4872 6.16267 33.1618 6.256 32.7885 6.256H31.8605V8H30.3005ZM31.8605 4.896H32.6845C32.7805 4.896 32.8685 4.85333 32.9485 4.768C33.0338 4.67733 33.0765 4.51733 33.0765 4.288C33.0765 4.05333 33.0285 3.89333 32.9325 3.808C32.8365 3.72267 32.7405 3.68 32.6445 3.68H31.8605V4.896Z" fill="white"/>
<path d="M195 44.98H184.35V40.18C184.35 39.68 184.455 39.22 184.665 38.8C184.865 38.37 185.14 38 185.49 37.69C185.83 37.38 186.215 37.14 186.645 36.97C187.075 36.79 187.51 36.7 187.95 36.7C188.61 36.7 189.22 36.86 189.78 37.18C190.33 37.49 190.75 37.91 191.04 38.44L195 36.1V38.815L191.565 40.855V42.52H195V44.98ZM189.42 42.52V40.27C189.42 39.98 189.285 39.73 189.015 39.52C188.735 39.31 188.38 39.205 187.95 39.205C187.52 39.205 187.175 39.325 186.915 39.565C186.645 39.805 186.51 40.065 186.51 40.345V42.52H189.42ZM195 34.9312H184.35V30.3862C184.35 29.8762 184.455 29.4112 184.665 28.9912C184.865 28.5612 185.14 28.1912 185.49 27.8812C185.83 27.5712 186.215 27.3312 186.645 27.1612C187.075 26.9912 187.51 26.9062 187.95 26.9062C188.57 26.9062 189.155 27.0512 189.705 27.3412C190.255 27.6212 190.705 28.0162 191.055 28.5262C191.395 29.0362 191.565 29.6312 191.565 30.3112V32.4712H195V34.9312ZM189.42 32.4712V30.4612C189.42 30.1712 189.295 29.9212 189.045 29.7112C188.795 29.5012 188.43 29.3962 187.95 29.3962C187.46 29.3962 187.1 29.5212 186.87 29.7712C186.63 30.0112 186.51 30.2712 186.51 30.5512V32.4712H189.42Z" fill="white"/>
<path d="M35 14.2577V39.3985C35 40.706 34.4806 41.9598 33.5562 42.8843C32.6317 43.8088 31.3778 44.3281 30.0704 44.3281H13.8028L16.1197 33.3845H25.2789L26.6592 26.7838H17.5493L18.5944 21.8542H29.8338L31.3127 14.7507H11.9542L5.66408 44.3281H4.92958C3.62217 44.3281 2.36831 43.8088 1.44384 42.8843C0.519365 41.9598 0 40.706 0 39.3985L0 14.2577C0 12.9503 0.519365 11.6964 1.44384 10.772C2.36831 9.84749 3.62217 9.32813 4.92958 9.32812H30.0704C31.3778 9.32812 32.6317 9.84749 33.5562 10.772C34.4806 11.6964 35 12.9503 35 14.2577Z" fill="url(#paint1_linear)"/>
<defs>
<linearGradient id="paint0_linear" x1="44.5" y1="12.5" x2="109.5" y2="45" gradientUnits="userSpaceOnUse">
<stop stop-color="#B5179E"/>
<stop offset="1" stop-color="#F72585"/>
</linearGradient>
<linearGradient id="paint1_linear" x1="1.91935" y1="18.839" x2="19.8709" y2="21.5028" gradientUnits="userSpaceOnUse">
<stop stop-color="#F72585"/>
<stop offset="1" stop-color="#B5179E"/>
</linearGradient>
</defs>
</svg>
