<svg width="64" height="64" viewBox="0 0 64 64" fill="none" xmlns="http://www.w3.org/2000/svg">
<path d="M1.32236 41.2017C5.2758 54.3862 17.5053 64 31.9764 64C49.6519 64 63.9792 49.6728 63.9792 32C63.9792 14.3272 49.6519 0 31.9792 0C15.0205 0 1.14382 13.1928 0.0478516 29.874C2.12167 33.3514 2.92648 35.5021 1.32236 41.2017Z" fill="url(#paint0_linear_281:86)"/>
<path d="M1.32236 41.2017C5.2758 54.3862 17.5053 64 31.9764 64C49.6519 64 63.9792 49.6728 63.9792 32C63.9792 14.3272 49.6519 0 31.9792 0C15.0205 0 1.14382 13.1928 0.0478516 29.874C2.12167 33.3514 2.92648 35.5021 1.32236 41.2017Z" fill="#313131" fill-opacity="0.2"/>
<path d="M30.3299 23.985L30.3329 24.143L22.5029 35.518C21.2349 35.46 19.9629 35.683 18.7549 36.18C18.2229 36.397 17.7249 36.663 17.2569 36.97L0.061895 29.893C0.061895 29.893 -0.336105 36.439 1.3219 41.317L13.4779 46.333C14.0779 49.061 15.9579 51.453 18.7199 52.603C20.8928 53.5059 23.3353 53.5094 25.5108 52.6128C27.6864 51.7162 29.4171 49.9928 30.3229 47.821C30.8129 46.641 31.0399 45.401 31.0069 44.165L42.2099 36.16L42.4849 36.165C49.1899 36.165 54.6399 30.699 54.6399 23.985C54.6383 20.7601 53.3578 17.6674 51.0792 15.3852C48.8006 13.103 45.7099 11.8177 42.4849 11.811C35.7829 11.811 30.3299 17.271 30.3299 23.985ZM28.4499 47.035C26.9959 50.525 22.9839 52.182 19.4969 50.729C17.8869 50.059 16.6739 48.831 15.9729 47.367L19.9299 49.007C20.5412 49.2615 21.1966 49.393 21.8587 49.394C22.5208 49.3951 23.1767 49.2657 23.7888 49.0132C24.4008 48.7607 24.9572 48.39 25.426 47.9224C25.8948 47.4548 26.2668 46.8995 26.5209 46.288C27.0354 45.0526 27.0384 43.6634 26.5294 42.4257C26.0203 41.188 25.0407 40.203 23.8059 39.687L19.7059 37.992C21.2839 37.392 23.0779 37.372 24.7559 38.069C26.4559 38.772 27.7559 40.096 28.4519 41.789C29.1479 43.482 29.1439 45.349 28.4419 47.035H28.4499ZM42.4859 32.1C38.0219 32.1 34.3879 28.46 34.3879 23.987C34.3903 21.8388 35.2438 19.7791 36.7616 18.2589C38.2794 16.7387 40.3377 15.8819 42.4859 15.876C44.6344 15.8813 46.6933 16.7379 48.2115 18.2582C49.7297 19.7785 50.5835 21.8385 50.5859 23.987C50.584 26.1359 49.7305 28.1965 48.2122 29.7172C46.6939 31.2379 44.6348 32.0947 42.4859 32.1ZM36.4179 23.974C36.4179 20.608 39.1429 17.879 42.4979 17.879C45.8529 17.879 48.5819 20.609 48.5819 23.974C48.5827 25.5887 47.9422 27.1376 46.8014 28.2801C45.6605 29.4227 44.1125 30.0654 42.4979 30.067C40.8838 30.0646 39.3366 29.4216 38.1964 28.2791C37.0561 27.1366 36.4161 25.5882 36.4169 23.974H36.4179Z" fill="white"/>
<defs>
<linearGradient id="paint0_linear_281:86" x1="32.0138" y1="0" x2="32.0138" y2="64" gradientUnits="userSpaceOnUse">
<stop stop-color="#111D2E"/>
<stop offset="0.212" stop-color="#051839"/>
<stop offset="0.407" stop-color="#0A1B48"/>
<stop offset="0.581" stop-color="#132E62"/>
<stop offset="0.738" stop-color="#144B7E"/>
<stop offset="0.873" stop-color="#136497"/>
<stop offset="1" stop-color="#1387B8"/>
</linearGradient>
</defs>
</svg>
