<svg width="22" height="22" viewBox="0 0 22 22" fill="none" xmlns="http://www.w3.org/2000/svg">
<circle cx="11" cy="6" r="6" fill="#3F37C9"/>
<path d="M21 22C21.5523 22 22.0069 21.5503 21.9323 21.0031C21.8179 20.1634 21.5594 19.3394 21.1627 18.5558C20.6099 17.4639 19.7996 16.4718 18.7782 15.636C17.7567 14.8003 16.5441 14.1374 15.2095 13.6851C13.8749 13.2328 12.4445 13 11 13C9.55546 13 8.12506 13.2328 6.79048 13.6851C5.4559 14.1374 4.24327 14.8003 3.22182 15.636C2.20038 16.4718 1.39013 17.4639 0.837325 18.5558C0.440622 19.3394 0.182077 20.1634 0.0676951 21.0031C-0.00685259 21.5503 0.447715 22 1 22L11 22H21Z" fill="#4895EF"/>
</svg>
