<svg width="340" height="93" viewBox="0 0 340 93" fill="none" xmlns="http://www.w3.org/2000/svg">
<path d="M116.825 84.45C112.575 84.45 108.925 83.75 105.875 82.35C102.825 80.95 100.325 79.025 98.375 76.575C96.475 74.125 95.075 71.325 94.175 68.175C93.275 64.975 92.825 61.625 92.825 58.125V30.75H107.45V58.125C107.45 60.475 107.75 62.675 108.35 64.725C109 66.725 110 68.35 111.35 69.6C112.75 70.85 114.575 71.475 116.825 71.475C119.125 71.475 120.95 70.85 122.3 69.6C123.7 68.3 124.7 66.65 125.3 64.65C125.95 62.6 126.275 60.425 126.275 58.125V30.75H140.9V58.125C140.9 63.075 140.025 67.55 138.275 71.55C136.575 75.5 133.95 78.65 130.4 81C126.85 83.3 122.325 84.45 116.825 84.45ZM163.937 57.825V84H149.312V30.75H160.712L182.087 57.825V30.75H196.712V84H185.087L163.937 57.825ZM220.48 57.825V84H205.855V30.75H217.255L238.63 57.825V30.75H253.255V84H241.63L220.48 57.825ZM262.398 84V30.75H277.023V84H262.398ZM296.627 30.75L306.302 47.55L315.977 30.75H331.727L315.002 57.75L331.127 84H315.377L306.302 67.95L297.227 84H281.402L297.527 57.75L280.802 30.75H296.627Z" fill="white"/>
<path d="M82.0482 24.4191L71.5366 74.3241C70.9899 76.9193 69.4347 79.1911 67.2131 80.6396C64.9915 82.0882 62.2854 82.5949 59.6902 82.0482L27.3987 75.2466L36.5735 54.492L54.7545 58.3215L60.2542 45.7961L42.171 41.9872L46.3066 32.6389L68.6171 37.3382L74.5227 23.8559L36.0959 15.762L11.2432 71.8437L9.78522 71.5366C7.19 70.99 4.91823 69.4348 3.46966 67.2131C2.0211 64.9915 1.5144 62.2854 2.06104 59.6902L12.5727 9.78528C13.1193 7.19006 14.6745 4.91829 16.8961 3.46973C19.1178 2.02116 21.8239 1.51447 24.4191 2.06111L74.324 12.5727C76.9192 13.1194 79.191 14.6746 80.6396 16.8962C82.0881 19.1178 82.5948 21.8239 82.0482 24.4191Z" fill="white"/>
</svg>
